# xmcd CD database file
#
# Track frame offsets:
#	150
#	20255
#	38597
#	56022
#	71345
#	88352
#	109037
#	127802
#	145357
#	160922
#	180705
#	200922
#	220027
#	241187
#	259830
#	282877
#	305152
#
# Disc length: 4104 seconds
#
# Revision: 0
# Processed by: cddbd v1.5.1PL0 Copyright (c) Steve Scherf et al.
# Submitted via: CDex 1.50
#
DISCID=f7100611
DTITLE=テレサ テン - Best Selection
DYEAR=1900
DGENRE=ニューミュージック
TTITLE0=ふたたびの
TTITLE1=旅人
TTITLE2=つぐない
TTITLE3=笑って乾杯
TTITLE4=愛人
TTITLE5=雨に濡れて
TTITLE6=時の流れに身をまかせ
TTITLE7=黄昏
TTITLE8=スキャンダル
TTITLE9=傷心
TTITLE10=別れの予感
TTITLE11=酒醉的探戈
TTITLE12=恋人たちの神話
TTITLE13=硝子の摩天楼
TTITLE14=香港〜Hong Kong〜
TTITLE15=星のしずくに濡れて
TTITLE16=テレサ テンのコメント
EXTD=
EXTT0=
EXTT1=
EXTT2=
EXTT3=
EXTT4=
EXTT5=
EXTT6=
EXTT7=
EXTT8=
EXTT9=
EXTT10=
EXTT11=
EXTT12=
EXTT13=
EXTT14=
EXTT15=
EXTT16=
PLAYORDER=
